<?xml version="1.0" encoding="UTF-8" standalone="no"?>
<!-- Created with Inkscape (http://www.inkscape.org/) -->

<svg
   width="32"
   height="32"
   viewBox="0 0 32 32"
   version="1.1"
   id="svg1"
   inkscape:version="1.4 (e7c3feb100, 2024-10-09)"
   sodipodi:docname="logo.svg"
   xmlns:inkscape="http://www.inkscape.org/namespaces/inkscape"
   xmlns:sodipodi="http://sodipodi.sourceforge.net/DTD/sodipodi-0.dtd"
   xmlns="http://www.w3.org/2000/svg"
   xmlns:svg="http://www.w3.org/2000/svg">
  <sodipodi:namedview
     id="namedview1"
     pagecolor="#000435"
     bordercolor="#ffffff"
     borderopacity="1"
     inkscape:showpageshadow="0"
     inkscape:pageopacity="0"
     inkscape:pagecheckerboard="1"
     inkscape:deskcolor="#505050"
     inkscape:document-units="px"
     showgrid="false"
     inkscape:zoom="17.876543"
     inkscape:cx="11.943025"
     inkscape:cy="18.152279"
     inkscape:window-width="1896"
     inkscape:window-height="979"
     inkscape:window-x="10"
     inkscape:window-y="89"
     inkscape:window-maximized="1"
     inkscape:current-layer="layer1">
    <inkscape:grid
       id="grid2"
       units="px"
       originx="0"
       originy="0"
       spacingx="1"
       spacingy="1"
       empcolor="#0099e5"
       empopacity="0.30196078"
       color="#0099e5"
       opacity="0.14901961"
       empspacing="5"
       enabled="true"
       visible="false" />
    <inkscape:page
       x="0"
       y="0"
       width="32"
       height="32"
       id="page2"
       margin="0"
       bleed="0" />
  </sodipodi:namedview>
  <defs
     id="defs1" />
  <g
     inkscape:label="Layer 1"
     inkscape:groupmode="layer"
     id="layer1">
    <path
       id="path1"
       style="fill:#e1ded9"
       d="M 16,0 A 16,16 0 0 0 0,16 16,16 0 0 0 16,32 16,16 0 0 0 32,16 16,16 0 0 0 16,0 Z M 9.855469,5.4980469 c 1.13516,-0.01484 2.137966,0.4385489 3.234375,1.4003906 1.096521,0.9619409 2.288079,2.4364389 3.490234,3.9707035 0.728302,-0.378377 1.36494,-0.646559 1.677735,-0.667969 0.01683,-0.0012 0.03199,-0.0024 0.04687,-0.002 0.04463,0.0013 0.08108,0.01065 0.107422,0.02539 0.562022,0.314388 0.64117,6.109921 0.08789,6.439453 -0.553279,0.329533 -5.612394,-2.500611 -5.621094,-3.144531 -0.0031,-0.230223 0.632139,-0.758163 1.47461,-1.326172 C 13.101847,10.46521 11.852306,8.8801542 10.621094,8.2734375 9.1753681,7.5610122 7.7536711,8.1954701 7.0078125,9.2324219 6.2619547,10.269374 6.1925682,11.709397 7.2128906,12.570312 c 1.0203209,0.860918 3.1310934,1.141533 3.9472654,1.552735 0.816173,0.411202 0.337781,0.952909 0.140625,1.521484 -0.197156,0.568577 -0.113393,1.165275 -1.240234,0.966797 C 8.9337063,16.412852 6.5960744,15.418861 5.3964844,14.265625 4.1968935,13.11239 4.1366581,11.799761 4.2421875,10.603516 4.3477173,9.4072713 4.6181551,8.3266548 5.5351562,7.4003906 6.4521581,6.4741257 8.0153285,5.7020694 9.3613281,5.5332031 9.5295779,5.5120948 9.6933028,5.5001669 9.855469,5.4980469 Z m 4.498047,6.6953121 c 0.218077,0.301095 0.436171,0.604654 0.654297,0.910157 -0.218125,-0.305503 -0.43622,-0.609062 -0.654297,-0.910157 z m 6.335937,3.195313 c 0.105852,-0.0041 0.229109,0.0023 0.371094,0.01953 1.135876,0.137648 3.523386,1.002724 4.783203,2.089844 1.259819,1.087119 1.390719,2.395516 1.349609,3.595703 -0.04111,1.200186 -0.253229,2.293384 -1.11914,3.267578 -0.865912,0.974195 -2.383767,1.829374 -3.71875,2.070313 -1.334982,0.240938 -2.488541,-0.133725 -3.798828,-1.164063 -1.147314,-0.902184 -2.415694,-2.311038 -3.699219,-3.779297 -0.85744,0.505396 -1.589288,0.846064 -1.792969,0.746094 -0.578102,-0.283738 -0.968369,-6.066999 -0.433594,-6.425781 0.03342,-0.02243 0.08485,-0.03431 0.152344,-0.03516 1.01241,-0.01272 5.588286,2.270684 5.628906,2.873046 0.01545,0.229087 -0.591258,0.788176 -1.398437,1.398438 1.342179,1.657522 2.674153,3.179332 3.935547,3.71875 1.481914,0.633722 2.865618,-0.07682 3.554687,-1.152344 0.689068,-1.075527 0.682291,-2.517413 -0.382812,-3.322266 C 23.055992,18.484208 20.932789,18.315976 20.095703,17.949219 19.258617,17.582461 19.708677,17.0178 19.875,16.439453 c 0.145533,-0.506054 0.07349,-1.021891 0.814453,-1.050781 z" />
  </g>
</svg>
